

<svg width="208px" height="208px" viewBox="0 0 208 208" version="1.1" xmlns="http://www.w3.org/2000/svg" xmlns:xlink="http://www.w3.org/1999/xlink">
    <!-- Generator: Sketch 43.2 (39069) - http://www.bohemiancoding.com/sketch -->
    <desc>Created with Sketch.</desc>
    <defs></defs>
    <g id="Air-Quality" stroke="none" stroke-width="1" fill="none" fill-rule="evenodd">
        <g id="AirQ---Ready-(average)" transform="translate(-76.000000, -216.000000)">
            <g id="Group-3" transform="translate(79.000000, 219.000000)">
                <path d="M187,124.863636 L196,122 L196,128 L196,137 L167,137 L167,128 L167,125.5 L178,122 L178,124.863636 L187,122 L187,124.863636 Z" id="Combined-Shape" fill="#777777"></path>
                <path d="M203,113.998911 L203,104.002178 C203,97.9219194 198.075132,93 192,93 C185.923532,93 181,97.9258427 181,104.002178 L181,113.998911 L181,111 L184,111 L184,104.004934 C184,99.5839312 187.590712,96 192,96 C196.418278,96 200,99.5746597 200,104.004934 L200,111 L203,111 L203,113.998911 Z" id="Combined-Shape" fill="#777777"></path>
                <path d="M181,113.998911 L181,104.002178 C181,97.9219194 176.075132,93 170,93 C163.923532,93 159,97.9258427 159,104.002178 L159,113.998911 L159,111 L162,111 L162,104.004934 C162,99.5839312 165.590712,96 170,96 C174.418278,96 178,99.5746597 178,104.004934 L178,111 L181,111 L181,113.998911 Z" id="Combined-Shape" fill="#777777"></path>
                <path d="M167.959902,127 L166.063148,79.6966247 C166.62769,79.343153 167,78.7154472 167,78 C167,76.8877296 166.104742,76 165.000385,76 L158.999615,76 C157.887433,76 157,76.8954305 157,78 C157,78.7189639 157.37406,79.3441093 157.936864,79.6963231 L156.040098,127 L155.99254,127 C154.352926,127 153,128.343293 153,130.00033 L153,137 L171,137 L171,130.00033 C171,128.348644 169.660194,127 168.00746,127 L167.959902,127 Z" id="Combined-Shape" fill="#9B9B9B"></path>
                <path d="M179.000012,61.9870685 C179.000004,61.9913781 179,61.9956886 179,62 C179,65.8659932 182.134007,69 186,69 C189.865993,69 193,65.8659932 193,62 C193,59.0248596 191.143937,56.4832259 188.526564,55.469851 C188.833794,54.5355079 189,53.5371637 189,52.5 C189,47.2532949 184.746705,43 179.5,43 C174.253295,43 170,47.2532949 170,52.5 C170,57.5789918 173.985724,61.7270679 179.000012,61.9870685 Z" id="Combined-Shape" fill-opacity="0.382529438" fill="#000000" opacity="0.798290308"></path>
                <path d="M187.959902,127 L186.063148,79.6966247 C186.62769,79.343153 187,78.7154472 187,78 C187,76.8877296 186.104742,76 185.000385,76 L178.999615,76 C177.887433,76 177,76.8954305 177,78 C177,78.7189639 177.37406,79.3441093 177.936864,79.6963231 L176.040098,127 L175.99254,127 C174.352926,127 173,128.343293 173,130.00033 L173,137 L191,137 L191,130.00033 C191,128.348644 189.660194,127 188.00746,127 L187.959902,127 Z" id="Combined-Shape" fill="#9B9B9B"></path>
                <path d="M13,74.007385 C13,72.3464521 14.3430813,71 16.0013869,71 L31.9986131,71 C33.6562333,71 35,72.3482827 35,74.007385 L35,137 L13,137 L13,74.007385 Z" id="Rectangle" fill="#0EA4E3"></path>
                <ellipse id="Oval-2" stroke="#FFFFFF" stroke-width="4.5" cx="101" cy="101.048889" rx="101" ry="101.048889"></ellipse>
                <path d="M41,92.002615 C41,90.3443165 42.3359915,89 44.0068483,89 L60.9931517,89 C62.6537881,89 64,90.3338926 64,92.002615 L64,137 L41,137 L41,92.002615 Z" id="Rectangle" fill="#0EA4E3"></path>
                <path d="M103,104.999211 C103,103.342792 104.334057,102 106.006586,102 L142.993414,102 C144.653906,102 146,103.350596 146,104.999211 L146,137 L103,137 L103,104.999211 Z" id="Rectangle" fill="#248DB8"></path>
                <path d="M75,56.001976 C75,54.3440304 76.3430813,53 78.0013869,53 L93.9986131,53 C95.6562333,53 97,54.3363997 97,56.001976 L97,137 L75,137 L75,56.001976 Z" id="Rectangle" fill="#248DB8"></path>
                <path d="M86,92.002615 C86,90.3443165 87.3473186,89 89.0000191,89 L112.999981,89 C114.656846,89 116,90.3338926 116,92.002615 L116,137 L86,137 L86,92.002615 Z" id="Rectangle" fill="#0EA4E3"></path>
                <polygon id="Rectangle-4" fill="#ACE6FF" points="64 114 94.9998779 114 102 121.023926 102 137 64 137"></polygon>
                <polygon id="Rectangle-4" fill="#ACE6FF" transform="translate(44.500000, 125.500000) scale(-1, 1) translate(-44.500000, -125.500000) " points="23 114 58.0788092 114 66 121.023926 66 137 23 137"></polygon>
                <rect id="Rectangle-5" fill="#ACE6FF" x="126" y="122" width="38" height="15"></rect>
                <rect id="Rectangle-7" fill="#FFFFFF" x="36" y="123" width="2" height="14"></rect>
                <rect id="Rectangle-7" fill="#FFFFFF" x="144" y="123" width="2" height="14"></rect>
                <rect id="Rectangle-16" fill="#258DB8" opacity="0.361129982" x="49" y="119" width="46" height="3"></rect>
                <rect id="Rectangle-16" fill="#258DB8" opacity="0.361129982" x="49" y="123" width="22" height="3"></rect>
                <rect id="Rectangle-16" fill="#258DB8" opacity="0.361129982" x="73" y="123" width="22" height="3"></rect>
                <rect id="Rectangle-16" fill="#258DB8" opacity="0.361129982" x="49" y="127" width="22" height="3"></rect>
                <rect id="Rectangle-16" fill="#258DB8" opacity="0.361129982" x="73" y="127" width="22" height="3"></rect>
                <rect id="Rectangle-17" fill="#FFFFFF" x="78" y="62" width="4" height="3"></rect>
                <rect id="Rectangle-17" fill="#FFFFFF" x="84" y="62" width="4" height="3"></rect>
                <rect id="Rectangle-17" fill="#0E6488" x="78" y="72" width="4" height="3"></rect>
                <rect id="Rectangle-17" fill="#0E6488" x="84" y="72" width="4" height="3"></rect>
                <rect id="Rectangle-17" fill="#FFFFFF" x="78" y="57" width="4" height="3"></rect>
                <rect id="Rectangle-17" fill="#FFFFFF" x="84" y="57" width="4" height="3"></rect>
                <path d="M90,57 L94,57 L94,60 L90,60 L90,57 Z M90,62 L94,62 L94,65 L90,65 L90,62 Z M78,97 L82,97 L82,100 L78,100 L78,97 Z M78,102 L82,102 L82,105 L78,105 L78,102 Z M78,67 L82,67 L82,70 L78,70 L78,67 Z M84,67 L88,67 L88,70 L84,70 L84,67 Z M90,67 L94,67 L94,70 L90,70 L90,67 Z" id="Combined-Shape" fill="#0E6488"></path>
                <path d="M28,75 L32,75 L32,78 L28,78 L28,75 Z M28,80 L32,80 L32,83 L28,83 L28,80 Z M16,115 L20,115 L20,118 L16,118 L16,115 Z M16,120 L20,120 L20,123 L16,123 L16,120 Z M16,85 L20,85 L20,88 L16,88 L16,85 Z M22,85 L26,85 L26,88 L22,88 L22,85 Z M28,85 L32,85 L32,88 L28,88 L28,85 Z" id="Combined-Shape" fill="#D8F4FF" transform="translate(24.000000, 99.000000) scale(-1, 1) translate(-24.000000, -99.000000) "></path>
                <path d="M90,72 L94,72 L94,75 L90,75 L90,72 Z M90,77 L94,77 L94,80 L90,80 L90,77 Z M78,82 L82,82 L82,85 L78,85 L78,82 Z M84,82 L88,82 L88,85 L84,85 L84,82 Z M90,82 L94,82 L94,85 L90,85 L90,82 Z" id="Combined-Shape" fill="#FFFFFF"></path>
                <rect id="Rectangle-17" fill="#FFFFFF" x="78" y="77" width="4" height="3"></rect>
                <rect id="Rectangle-17" fill="#FFFFFF" x="78" y="92" width="4" height="3"></rect>
                <rect id="Rectangle-17" fill="#FFFFFF" x="78" y="87" width="4" height="3"></rect>
                <rect id="Rectangle-17" fill="#FFFFFF" x="78" y="107" width="4" height="3"></rect>
                <rect id="Rectangle-17" fill="#FFFFFF" x="84" y="77" width="4" height="3"></rect>
                <rect id="Rectangle-3" fill="#93DC43" x="137" y="114" width="16" height="19" rx="7"></rect>
                <rect id="Rectangle-3" fill="#93DC43" x="28" y="107" width="18" height="24" rx="7"></rect>
                <rect id="Rectangle-6" fill="#FFFFFF" x="8" y="137" width="188" height="4"></rect>
                <path d="M113.865423,36.5204174 C112.190312,38.4262006 110.91678,40.7367948 110.215609,43.3535985 C107.779504,52.445265 113.174903,61.79037 122.26657,64.2264747 C127.598591,65.6551854 133.017782,64.3902418 137.07935,61.2657963 C137.701476,66.191036 141.905923,70 147,70 C149.735899,70 152.215184,68.9013083 154.020709,67.1210724 C155.304777,68.6462245 157.228206,69.6153099 159.377977,69.6153099 C163.24397,69.6153099 166.377977,66.4813032 166.377977,62.6153099 C166.377977,58.7493167 163.24397,55.6153099 159.377977,55.6153099 C158.274823,55.6153099 157.23127,55.8704918 156.303127,56.3250469 C155.197157,53.5275956 152.865896,51.3482632 149.971052,50.4487587 C151.266898,49.2011123 152.250223,47.5957365 152.749737,45.7315251 C154.212381,40.2728615 150.972968,34.6620326 145.514304,33.1993881 C144.709279,32.9836821 143.900943,32.870243 143.103092,32.851107 C143.188212,32.5874952 143.267127,32.320334 143.339632,32.049743 C145.665177,23.3706913 140.514642,14.4497031 131.83559,12.1241582 C123.156539,9.79861328 114.23555,14.9491482 111.910006,23.6281999 C110.687769,28.1896493 111.530604,32.8179272 113.865423,36.5204174 Z" id="Combined-Shape" fill-opacity="0.382529438" fill="#000000" opacity="0.798290308"></path>
                <rect id="Rectangle-18" fill-opacity="0.547016531" fill="#FFFFFF" x="89" y="93" width="24" height="2"></rect>
                <rect id="Rectangle-18" fill-opacity="0.547016531" fill="#FFFFFF" x="89" y="97" width="24" height="2"></rect>
                <rect id="Rectangle-18" fill-opacity="0.547016531" fill="#FFFFFF" x="89" y="101" width="24" height="2"></rect>
                <rect id="Rectangle-18" fill-opacity="0.547016531" fill="#FFFFFF" x="89" y="105" width="24" height="2"></rect>
            </g>
        </g>
    </g>
</svg>