
<svg width="208px" height="208px" viewBox="0 0 208 208" version="1.1" xmlns="http://www.w3.org/2000/svg" xmlns:xlink="http://www.w3.org/1999/xlink">
    <!-- Generator: Sketch 43.2 (39069) - http://www.bohemiancoding.com/sketch -->
    <desc>Created with Sketch.</desc>
    <defs></defs>
    <g id="Air-Quality" stroke="none" stroke-width="1" fill="none" fill-rule="evenodd">
        <g id="AirQ---Ready" transform="translate(-76.000000, -214.000000)">
            <g id="Group-3" transform="translate(78.000000, 217.000000)">
                <path d="M188,124.863636 L197,122 L197,128 L197,137 L168,137 L168,128 L168,125.5 L179,122 L179,124.863636 L188,122 L188,124.863636 Z" id="Combined-Shape" fill="#777777"></path>
                <path d="M204,113.998911 L204,104.002178 C204,97.9219194 199.075132,93 193,93 C186.923532,93 182,97.9258427 182,104.002178 L182,113.998911 L182,111 L185,111 L185,104.004934 C185,99.5839312 188.590712,96 193,96 C197.418278,96 201,99.5746597 201,104.004934 L201,111 L204,111 L204,113.998911 Z" id="Combined-Shape" fill="#777777"></path>
                <path d="M54.1138925,118.516531 C55.8413314,123.814274 60.1291491,128.159945 65.9127816,129.709664 C73.5271067,131.749916 81.3191977,128.297025 85.0815491,121.780193 C85.3524872,121.864859 85.6263572,121.944335 85.9030783,122.018483 C96.8221548,124.94424 108.04561,118.464375 110.971368,107.545299 C111.274775,106.412968 111.477033,105.277364 111.583681,104.148079 C112.046671,104.213767 112.519866,104.247746 113.000997,104.247746 C114.084071,104.247746 115.126929,104.075562 116.103692,103.757075 C116.839339,109.118064 121.437899,113.247746 127.000997,113.247746 C133.076129,113.247746 138.000997,108.322878 138.000997,102.247746 C138.000997,96.1726135 133.076129,91.2477458 127.000997,91.2477458 C125.50092,91.2477458 124.070974,91.5480146 122.767986,92.0917267 C121.782094,87.6052034 117.783633,84.2477458 113.000997,84.2477458 C110.023136,84.2477458 107.349286,85.5493665 105.517346,87.6147069 C103.084868,85.2304335 100.0228,83.4214269 96.4981843,82.4770089 C85.8138423,79.6141481 74.8380673,85.7568594 71.630004,96.2521935 C65.4457922,95.7698376 59.5236495,98.7196078 56.1440675,103.784862 C54.5323089,93.6893859 47.1702411,84.9822305 36.6569898,82.1652133 C22.396964,78.3442509 7.73942688,86.8067839 3.91846447,101.06681 C0.0975020492,115.326836 -3.23463525,135.063803 11.0253906,138.884766 C24.072544,142.38074 47.3260913,131.341755 54.1138925,118.516531 Z M153.181486,110.633626 C158.64015,112.096271 161.879563,117.7071 160.416919,123.165763 C158.954274,128.624427 153.343445,131.863841 147.884782,130.401196 C142.426118,128.938552 139.186705,123.327723 140.649349,117.869059 C142.111994,112.410395 147.722822,109.170982 153.181486,110.633626 Z" id="Combined-Shape" fill-opacity="0.382529438" fill="#000000" opacity="0.798290308"></path>
                <path d="M182,113.998911 L182,104.002178 C182,97.9219194 177.075132,93 171,93 C164.923532,93 160,97.9258427 160,104.002178 L160,113.998911 L160,111 L163,111 L163,104.004934 C163,99.5839312 166.590712,96 171,96 C175.418278,96 179,99.5746597 179,104.004934 L179,111 L182,111 L182,113.998911 Z" id="Combined-Shape" fill="#777777"></path>
                <path d="M168.959902,127 L167.063148,79.6966247 C167.62769,79.343153 168,78.7154472 168,78 C168,76.8877296 167.104742,76 166.000385,76 L159.999615,76 C158.887433,76 158,76.8954305 158,78 C158,78.7189639 158.37406,79.3441093 158.936864,79.6963231 L157.040098,127 L156.99254,127 C155.352926,127 154,128.343293 154,130.00033 L154,137 L172,137 L172,130.00033 C172,128.348644 170.660194,127 169.00746,127 L168.959902,127 Z" id="Combined-Shape" fill="#9B9B9B"></path>
                <path d="M180.000012,61.9870685 C180.000004,61.9913781 180,61.9956886 180,62 C180,65.8659932 183.134007,69 187,69 C190.865993,69 194,65.8659932 194,62 C194,59.0248596 192.143937,56.4832259 189.526564,55.469851 C189.833794,54.5355079 190,53.5371637 190,52.5 C190,47.2532949 185.746705,43 180.5,43 C175.253295,43 171,47.2532949 171,52.5 C171,57.5789918 174.985724,61.7270679 180.000012,61.9870685 Z" id="Combined-Shape" fill-opacity="0.382529438" fill="#000000" opacity="0.798290308"></path>
                <path d="M188.959902,127 L187.063148,79.6966247 C187.62769,79.343153 188,78.7154472 188,78 C188,76.8877296 187.104742,76 186.000385,76 L179.999615,76 C178.887433,76 178,76.8954305 178,78 C178,78.7189639 178.37406,79.3441093 178.936864,79.6963231 L177.040098,127 L176.99254,127 C175.352926,127 174,128.343293 174,130.00033 L174,137 L192,137 L192,130.00033 C192,128.348644 190.660194,127 189.00746,127 L188.959902,127 Z" id="Combined-Shape" fill="#9B9B9B"></path>
                <path d="M14,74.007385 C14,72.3464521 15.3430813,71 17.0013869,71 L32.9986131,71 C34.6562333,71 36,72.3482827 36,74.007385 L36,137 L14,137 L14,74.007385 Z" id="Rectangle" fill="#0EA4E3"></path>
                <ellipse id="Oval-2" stroke="#FFFFFF" stroke-width="4.5" cx="102" cy="101.048889" rx="101" ry="101.048889"></ellipse>
                <path d="M42,92.002615 C42,90.3443165 43.3359915,89 45.0068483,89 L61.9931517,89 C63.6537881,89 65,90.3338926 65,92.002615 L65,137 L42,137 L42,92.002615 Z" id="Rectangle" fill="#0EA4E3"></path>
                <path d="M104,104.999211 C104,103.342792 105.334057,102 107.006586,102 L143.993414,102 C145.653906,102 147,103.350596 147,104.999211 L147,137 L104,137 L104,104.999211 Z" id="Rectangle" fill="#248DB8"></path>
                <path d="M76,56.001976 C76,54.3440304 77.3430813,53 79.0013869,53 L94.9986131,53 C96.6562333,53 98,54.3363997 98,56.001976 L98,137 L76,137 L76,56.001976 Z" id="Rectangle" fill="#248DB8"></path>
                <path d="M87,92.002615 C87,90.3443165 88.3473186,89 90.0000191,89 L113.999981,89 C115.656846,89 117,90.3338926 117,92.002615 L117,137 L87,137 L87,92.002615 Z" id="Rectangle" fill="#0EA4E3"></path>
                <polygon id="Rectangle-4" fill="#ACE6FF" points="65 114 95.9998779 114 103 121.023926 103 137 65 137"></polygon>
                <polygon id="Rectangle-4" fill="#ACE6FF" transform="translate(45.500000, 125.500000) scale(-1, 1) translate(-45.500000, -125.500000) " points="24 114 59.0788092 114 67 121.023926 67 137 24 137"></polygon>
                <rect id="Rectangle-5" fill="#ACE6FF" x="127" y="122" width="38" height="15"></rect>
                <rect id="Rectangle-7" fill="#FFFFFF" x="37" y="123" width="2" height="14"></rect>
                <rect id="Rectangle-7" fill="#FFFFFF" x="145" y="123" width="2" height="14"></rect>
                <rect id="Rectangle-16" fill="#258DB8" opacity="0.361129982" x="50" y="119" width="46" height="3"></rect>
                <rect id="Rectangle-16" fill="#258DB8" opacity="0.361129982" x="50" y="123" width="22" height="3"></rect>
                <rect id="Rectangle-16" fill="#258DB8" opacity="0.361129982" x="74" y="123" width="22" height="3"></rect>
                <rect id="Rectangle-16" fill="#258DB8" opacity="0.361129982" x="50" y="127" width="22" height="3"></rect>
                <rect id="Rectangle-16" fill="#258DB8" opacity="0.361129982" x="74" y="127" width="22" height="3"></rect>
                <rect id="Rectangle-17" fill="#FFFFFF" x="79" y="62" width="4" height="3"></rect>
                <rect id="Rectangle-17" fill="#FFFFFF" x="85" y="62" width="4" height="3"></rect>
                <rect id="Rectangle-17" fill="#0E6488" x="79" y="72" width="4" height="3"></rect>
                <rect id="Rectangle-17" fill="#0E6488" x="85" y="72" width="4" height="3"></rect>
                <rect id="Rectangle-17" fill="#FFFFFF" x="79" y="57" width="4" height="3"></rect>
                <rect id="Rectangle-17" fill="#FFFFFF" x="85" y="57" width="4" height="3"></rect>
                <path d="M91,57 L95,57 L95,60 L91,60 L91,57 Z M91,62 L95,62 L95,65 L91,65 L91,62 Z M79,97 L83,97 L83,100 L79,100 L79,97 Z M79,102 L83,102 L83,105 L79,105 L79,102 Z M79,67 L83,67 L83,70 L79,70 L79,67 Z M85,67 L89,67 L89,70 L85,70 L85,67 Z M91,67 L95,67 L95,70 L91,70 L91,67 Z" id="Combined-Shape" fill="#0E6488"></path>
                <path d="M29,75 L33,75 L33,78 L29,78 L29,75 Z M29,80 L33,80 L33,83 L29,83 L29,80 Z M17,115 L21,115 L21,118 L17,118 L17,115 Z M17,120 L21,120 L21,123 L17,123 L17,120 Z M17,85 L21,85 L21,88 L17,88 L17,85 Z M23,85 L27,85 L27,88 L23,88 L23,85 Z M29,85 L33,85 L33,88 L29,88 L29,85 Z" id="Combined-Shape" fill="#D8F4FF" transform="translate(25.000000, 99.000000) scale(-1, 1) translate(-25.000000, -99.000000) "></path>
                <path d="M91,72 L95,72 L95,75 L91,75 L91,72 Z M91,77 L95,77 L95,80 L91,80 L91,77 Z M79,82 L83,82 L83,85 L79,85 L79,82 Z M85,82 L89,82 L89,85 L85,85 L85,82 Z M91,82 L95,82 L95,85 L91,85 L91,82 Z" id="Combined-Shape" fill="#FFFFFF"></path>
                <rect id="Rectangle-17" fill="#FFFFFF" x="79" y="77" width="4" height="3"></rect>
                <rect id="Rectangle-17" fill="#FFFFFF" x="79" y="92" width="4" height="3"></rect>
                <rect id="Rectangle-17" fill="#FFFFFF" x="79" y="87" width="4" height="3"></rect>
                <rect id="Rectangle-17" fill="#FFFFFF" x="79" y="107" width="4" height="3"></rect>
                <rect id="Rectangle-17" fill="#FFFFFF" x="85" y="77" width="4" height="3"></rect>
                <rect id="Rectangle-3" fill="#93DC43" x="138" y="114" width="16" height="19" rx="7"></rect>
                <rect id="Rectangle-3" fill="#93DC43" x="29" y="107" width="18" height="24" rx="7"></rect>
                <rect id="Rectangle-6" fill="#FFFFFF" x="9" y="137" width="188" height="4"></rect>
                <path d="M114.632955,58.7345412 C116.80264,61.3191224 119.759622,63.2867909 123.26657,64.2264747 C128.598591,65.6551854 134.017782,64.3902418 138.07935,61.2657963 C138.701476,66.191036 142.905923,70 148,70 C150.735899,70 153.215184,68.9013083 155.020709,67.1210724 C156.304777,68.6462245 158.228206,69.6153099 160.377977,69.6153099 C164.24397,69.6153099 167.377977,66.4813032 167.377977,62.6153099 C167.377977,58.7493167 164.24397,55.6153099 160.377977,55.6153099 C159.274823,55.6153099 158.23127,55.8704918 157.303127,56.3250469 C156.197157,53.5275956 153.865896,51.3482632 150.971052,50.4487587 C152.266898,49.2011123 153.250223,47.5957365 153.749737,45.7315251 C155.212381,40.2728615 151.972968,34.6620326 146.514304,33.1993881 C145.709279,32.9836821 144.900943,32.870243 144.103092,32.851107 C144.188212,32.5874952 144.267127,32.320334 144.339632,32.049743 C146.665177,23.3706913 141.514642,14.4497031 132.83559,12.1241582 C124.880776,9.99267213 116.722718,14.1416173 113.625988,21.531492 C110.450888,18.422664 106.455565,16.063908 101.857467,14.8318511 C87.5974407,11.0108887 72.9399036,19.4734217 69.1189412,33.7334476 C65.2979788,47.9934734 73.7605118,62.6510105 88.0205376,66.4719729 C97.9695964,69.1378152 108.112151,65.8244264 114.632955,58.7345412 Z" id="Combined-Shape" fill-opacity="0.382529438" fill="#000000" opacity="0.798290308"></path>
                <rect id="Rectangle-18" fill-opacity="0.547016531" fill="#FFFFFF" x="90" y="93" width="24" height="2"></rect>
                <rect id="Rectangle-18" fill-opacity="0.547016531" fill="#FFFFFF" x="90" y="97" width="24" height="2"></rect>
                <rect id="Rectangle-18" fill-opacity="0.547016531" fill="#FFFFFF" x="90" y="101" width="24" height="2"></rect>
                <rect id="Rectangle-18" fill-opacity="0.547016531" fill="#FFFFFF" x="90" y="105" width="24" height="2"></rect>
            </g>
        </g>
    </g>
</svg>