
<svg width="208px" height="208px" viewBox="0 0 208 208" version="1.1" xmlns="http://www.w3.org/2000/svg" xmlns:xlink="http://www.w3.org/1999/xlink">
    <!-- Generator: Sketch 43.2 (39069) - http://www.bohemiancoding.com/sketch -->
    <desc>Created with Sketch.</desc>
    <defs></defs>
    <g id="Air-Quality" stroke="none" stroke-width="1" fill="none" fill-rule="evenodd">
        <g id="AirQ---Ready-(none)" transform="translate(-76.000000, -214.000000)">
            <g id="Group-3" transform="translate(79.000000, 217.000000)">
                <path d="M187,124.863636 L196,122 L196,128 L196,137 L167,137 L167,128 L167,125.5 L178,122 L178,124.863636 L187,122 L187,124.863636 Z" id="Combined-Shape" fill="#777777"></path>
                <path d="M203,113.998911 L203,104.002178 C203,97.9219194 198.075132,93 192,93 C185.923532,93 181,97.9258427 181,104.002178 L181,113.998911 L181,111 L184,111 L184,104.004934 C184,99.5839312 187.590712,96 192,96 C196.418278,96 200,99.5746597 200,104.004934 L200,111 L203,111 L203,113.998911 Z" id="Combined-Shape" fill="#777777"></path>
                <path d="M181,113.998911 L181,104.002178 C181,97.9219194 176.075132,93 170,93 C163.923532,93 159,97.9258427 159,104.002178 L159,113.998911 L159,111 L162,111 L162,104.004934 C162,99.5839312 165.590712,96 170,96 C174.418278,96 178,99.5746597 178,104.004934 L178,111 L181,111 L181,113.998911 Z" id="Combined-Shape" fill="#777777"></path>
                <path d="M167.959902,127 L166.063148,79.6966247 C166.62769,79.343153 167,78.7154472 167,78 C167,76.8877296 166.104742,76 165.000385,76 L158.999615,76 C157.887433,76 157,76.8954305 157,78 C157,78.7189639 157.37406,79.3441093 157.936864,79.6963231 L156.040098,127 L155.99254,127 C154.352926,127 153,128.343293 153,130.00033 L153,137 L171,137 L171,130.00033 C171,128.348644 169.660194,127 168.00746,127 L167.959902,127 Z" id="Combined-Shape" fill="#9B9B9B"></path>
                <path d="M187.959902,127 L186.063148,79.6966247 C186.62769,79.343153 187,78.7154472 187,78 C187,76.8877296 186.104742,76 185.000385,76 L178.999615,76 C177.887433,76 177,76.8954305 177,78 C177,78.7189639 177.37406,79.3441093 177.936864,79.6963231 L176.040098,127 L175.99254,127 C174.352926,127 173,128.343293 173,130.00033 L173,137 L191,137 L191,130.00033 C191,128.348644 189.660194,127 188.00746,127 L187.959902,127 Z" id="Combined-Shape" fill="#9B9B9B"></path>
                <path d="M13,74.007385 C13,72.3464521 14.3430813,71 16.0013869,71 L31.9986131,71 C33.6562333,71 35,72.3482827 35,74.007385 L35,137 L13,137 L13,74.007385 Z" id="Rectangle" fill="#0EA4E3"></path>
                <ellipse id="Oval-2" stroke="#FFFFFF" stroke-width="4.5" cx="101" cy="101.048889" rx="101" ry="101.048889"></ellipse>
                <path d="M41,92.002615 C41,90.3443165 42.3359915,89 44.0068483,89 L60.9931517,89 C62.6537881,89 64,90.3338926 64,92.002615 L64,137 L41,137 L41,92.002615 Z" id="Rectangle" fill="#0EA4E3"></path>
                <path d="M103,104.999211 C103,103.342792 104.334057,102 106.006586,102 L142.993414,102 C144.653906,102 146,103.350596 146,104.999211 L146,137 L103,137 L103,104.999211 Z" id="Rectangle" fill="#248DB8"></path>
                <path d="M75,56.001976 C75,54.3440304 76.3430813,53 78.0013869,53 L93.9986131,53 C95.6562333,53 97,54.3363997 97,56.001976 L97,137 L75,137 L75,56.001976 Z" id="Rectangle" fill="#248DB8"></path>
                <path d="M86,92.002615 C86,90.3443165 87.3473186,89 89.0000191,89 L112.999981,89 C114.656846,89 116,90.3338926 116,92.002615 L116,137 L86,137 L86,92.002615 Z" id="Rectangle" fill="#0EA4E3"></path>
                <polygon id="Rectangle-4" fill="#ACE6FF" points="64 114 94.9998779 114 102 121.023926 102 137 64 137"></polygon>
                <polygon id="Rectangle-4" fill="#ACE6FF" transform="translate(44.500000, 125.500000) scale(-1, 1) translate(-44.500000, -125.500000) " points="23 114 58.0788092 114 66 121.023926 66 137 23 137"></polygon>
                <rect id="Rectangle-5" fill="#ACE6FF" x="126" y="122" width="38" height="15"></rect>
                <rect id="Rectangle-7" fill="#FFFFFF" x="36" y="123" width="2" height="14"></rect>
                <rect id="Rectangle-7" fill="#FFFFFF" x="144" y="123" width="2" height="14"></rect>
                <rect id="Rectangle-16" fill="#258DB8" opacity="0.361129982" x="49" y="119" width="46" height="3"></rect>
                <rect id="Rectangle-16" fill="#258DB8" opacity="0.361129982" x="49" y="123" width="22" height="3"></rect>
                <rect id="Rectangle-16" fill="#258DB8" opacity="0.361129982" x="73" y="123" width="22" height="3"></rect>
                <rect id="Rectangle-16" fill="#258DB8" opacity="0.361129982" x="49" y="127" width="22" height="3"></rect>
                <rect id="Rectangle-16" fill="#258DB8" opacity="0.361129982" x="73" y="127" width="22" height="3"></rect>
                <rect id="Rectangle-17" fill="#FFFFFF" x="78" y="62" width="4" height="3"></rect>
                <rect id="Rectangle-17" fill="#FFFFFF" x="84" y="62" width="4" height="3"></rect>
                <rect id="Rectangle-17" fill="#0E6488" x="78" y="72" width="4" height="3"></rect>
                <rect id="Rectangle-17" fill="#0E6488" x="84" y="72" width="4" height="3"></rect>
                <rect id="Rectangle-17" fill="#FFFFFF" x="78" y="57" width="4" height="3"></rect>
                <rect id="Rectangle-17" fill="#FFFFFF" x="84" y="57" width="4" height="3"></rect>
                <path d="M90,57 L94,57 L94,60 L90,60 L90,57 Z M90,62 L94,62 L94,65 L90,65 L90,62 Z M78,97 L82,97 L82,100 L78,100 L78,97 Z M78,102 L82,102 L82,105 L78,105 L78,102 Z M78,67 L82,67 L82,70 L78,70 L78,67 Z M84,67 L88,67 L88,70 L84,70 L84,67 Z M90,67 L94,67 L94,70 L90,70 L90,67 Z" id="Combined-Shape" fill="#0E6488"></path>
                <path d="M28,75 L32,75 L32,78 L28,78 L28,75 Z M28,80 L32,80 L32,83 L28,83 L28,80 Z M16,115 L20,115 L20,118 L16,118 L16,115 Z M16,120 L20,120 L20,123 L16,123 L16,120 Z M16,85 L20,85 L20,88 L16,88 L16,85 Z M22,85 L26,85 L26,88 L22,88 L22,85 Z M28,85 L32,85 L32,88 L28,88 L28,85 Z" id="Combined-Shape" fill="#D8F4FF" transform="translate(24.000000, 99.000000) scale(-1, 1) translate(-24.000000, -99.000000) "></path>
                <path d="M90,72 L94,72 L94,75 L90,75 L90,72 Z M90,77 L94,77 L94,80 L90,80 L90,77 Z M78,82 L82,82 L82,85 L78,85 L78,82 Z M84,82 L88,82 L88,85 L84,85 L84,82 Z M90,82 L94,82 L94,85 L90,85 L90,82 Z" id="Combined-Shape" fill="#FFFFFF"></path>
                <rect id="Rectangle-17" fill="#FFFFFF" x="78" y="77" width="4" height="3"></rect>
                <rect id="Rectangle-17" fill="#FFFFFF" x="78" y="92" width="4" height="3"></rect>
                <rect id="Rectangle-17" fill="#FFFFFF" x="78" y="87" width="4" height="3"></rect>
                <rect id="Rectangle-17" fill="#FFFFFF" x="78" y="107" width="4" height="3"></rect>
                <rect id="Rectangle-17" fill="#FFFFFF" x="84" y="77" width="4" height="3"></rect>
                <rect id="Rectangle-3" fill="#93DC43" x="137" y="114" width="16" height="19" rx="7"></rect>
                <rect id="Rectangle-3" fill="#93DC43" x="28" y="107" width="18" height="24" rx="7"></rect>
                <rect id="Rectangle-6" fill="#FFFFFF" x="8" y="137" width="188" height="4"></rect>
                <path d="M135.337287,10.3602948 C137.122927,9.48896204 139.129362,9 141.25,9 C145.810613,9 149.843034,11.2614574 152.287054,14.7241631 C153.072295,14.5127572 153.897979,14.4 154.75,14.4 C159.969091,14.4 164.2,18.6309091 164.2,23.85 C164.2,29.0690909 159.969091,33.3 154.75,33.3 C153.232531,33.3 151.7986,32.9423289 150.527913,32.3066918 C148.108937,34.5960243 144.843427,36 141.25,36 C135.659591,36 130.862839,32.601955 128.812519,27.7586418 C124.3739,26.9832329 121,23.1106248 121,18.45 C121,13.2309091 125.230909,9 130.45,9 C132.238674,9 133.91128,9.49694249 135.337287,10.3602948 Z" id="Combined-Shape" fill="#FFFFFF" opacity="0.798290308"></path>
                <path d="M35.6651376,23.8870877 C36.9953174,23.3161613 38.460737,23 40,23 C43.5640967,23 46.7322936,24.6950482 48.7424197,27.3229734 C49.4583834,27.1127699 50.2160223,27 51,27 C55.418278,27 59,30.581722 59,35 C59,39.418278 55.418278,43 51,43 C49.7030607,43 48.4782036,42.6913792 47.3948621,42.1435712 C45.4415509,43.9183519 42.8470917,45 40,45 C35.6336417,45 31.8614729,42.4559722 30.0848939,38.7693171 C26.5914464,37.9111064 24,34.7581856 24,31 C24,26.581722 27.581722,23 32,23 C33.3209407,23 34.5671066,23.3201492 35.6651376,23.8870877 Z" id="Combined-Shape" fill="#FFFFFF" opacity="0.798290308" transform="translate(41.500000, 34.000000) scale(-1, 1) translate(-41.500000, -34.000000) "></path>
                <rect id="Rectangle-18" fill-opacity="0.547016531" fill="#FFFFFF" x="89" y="93" width="24" height="2"></rect>
                <rect id="Rectangle-18" fill-opacity="0.547016531" fill="#FFFFFF" x="89" y="97" width="24" height="2"></rect>
                <rect id="Rectangle-18" fill-opacity="0.547016531" fill="#FFFFFF" x="89" y="101" width="24" height="2"></rect>
                <rect id="Rectangle-18" fill-opacity="0.547016531" fill="#FFFFFF" x="89" y="105" width="24" height="2"></rect>
            </g>
        </g>
    </g>
</svg>